<svg width="163" height="103" viewBox="0 0 163 103" fill="none" xmlns="http://www.w3.org/2000/svg">
<path d="M77.72 82.2799C77.72 82.7332 77.8267 83.1599 78.04 83.5599C78.28 83.9599 78.6133 84.2932 79.04 84.5599C79.4667 84.7999 79.9733 84.9199 80.56 84.9199C81.4133 84.9199 82.24 84.7199 83.04 84.3199C83.84 83.9199 84.5867 83.3732 85.28 82.6799V79.1999H80.92C79.9067 79.1999 79.12 79.5199 78.56 80.1599C78 80.7999 77.72 81.5065 77.72 82.2799ZM76.08 73.4799L74.88 69.7999C75.3867 69.4532 76.0667 69.1599 76.92 68.9199C77.7733 68.6532 78.64 68.4532 79.52 68.3199C80.4 68.1599 81.1067 68.0799 81.64 68.0799C83.16 68.0799 84.5333 68.3865 85.76 68.9999C86.9867 69.5865 87.96 70.4132 88.68 71.4799C89.4267 72.5465 89.8 73.7332 89.8 75.0399V87.9999H86.76L86.08 86.0399C85.3867 86.7065 84.56 87.2799 83.6 87.7599C82.64 88.2399 81.6533 88.4799 80.64 88.4799C78.32 88.4799 76.6 87.9065 75.48 86.7599C74.36 85.6132 73.8 84.1199 73.8 82.2799C73.8 80.3332 74.4667 78.8399 75.8 77.7999C77.1333 76.7599 78.8667 76.2265 81 76.1999H85.24V76.0799C85.2133 74.9332 84.9333 73.9999 84.4 73.2799C83.8667 72.5332 82.9733 72.1599 81.72 72.1599C80.7067 72.1599 79.6933 72.3065 78.68 72.5999C77.6933 72.8665 76.8267 73.1599 76.08 73.4799ZM98.7219 87.9999H94.2419V68.5999H96.6419L98.1219 71.7999C98.6552 71.3465 99.2952 70.8799 100.042 70.3999C100.789 69.8932 101.562 69.4665 102.362 69.1199C103.189 68.7732 103.949 68.5999 104.642 68.5999L105.602 72.1999C104.962 72.1999 104.229 72.3599 103.402 72.6799C102.602 72.9999 101.789 73.4132 100.962 73.9199C100.162 74.4265 99.4152 74.9999 98.7219 75.6399V87.9999ZM111.064 87.9999H108.704V60.1999L113.144 59.7599V85.0799L111.064 87.9999ZM111.544 74.6799L110.264 71.5999C110.851 70.8265 111.531 70.1865 112.304 69.6799C113.078 69.1465 113.864 68.7465 114.664 68.4799C115.491 68.2132 116.264 68.0799 116.984 68.0799C118.984 68.0799 120.704 68.5065 122.144 69.3599C123.611 70.1865 124.731 71.3732 125.504 72.9199C126.304 74.4399 126.704 76.2399 126.704 78.3199C126.704 80.3465 126.304 82.1332 125.504 83.6799C124.704 85.1999 123.571 86.3865 122.104 87.2399C120.664 88.0932 118.918 88.5199 116.864 88.5199C116.224 88.5199 115.464 88.3732 114.584 88.0799C113.731 87.7865 112.904 87.3732 112.104 86.8399C111.331 86.3065 110.691 85.6799 110.184 84.9599L111.504 81.8399C112.384 82.8799 113.238 83.6132 114.064 84.0399C114.918 84.4399 115.851 84.6399 116.864 84.6399C117.984 84.6399 118.931 84.3732 119.704 83.8399C120.478 83.2799 121.064 82.5199 121.464 81.5599C121.864 80.5999 122.064 79.5332 122.064 78.3599C122.064 77.0799 121.864 75.9599 121.464 74.9999C121.091 74.0399 120.518 73.2932 119.744 72.7599C118.971 72.1999 118.024 71.9199 116.904 71.9199C115.838 71.9199 114.891 72.1465 114.064 72.5999C113.264 73.0532 112.424 73.7465 111.544 74.6799ZM147.061 79.4799H133.621C133.755 80.5199 134.035 81.4265 134.461 82.1999C134.915 82.9732 135.568 83.5865 136.421 84.0399C137.301 84.4665 138.435 84.6799 139.821 84.6799C140.941 84.6799 141.928 84.5199 142.781 84.1999C143.661 83.8799 144.581 83.4665 145.541 82.9599L146.901 86.2399C146.288 86.6399 145.621 87.0265 144.901 87.3999C144.181 87.7465 143.395 88.0132 142.541 88.1999C141.688 88.3865 140.755 88.4799 139.741 88.4799C137.368 88.4799 135.368 88.0665 133.741 87.2399C132.115 86.3865 130.901 85.1999 130.101 83.6799C129.301 82.1332 128.901 80.3465 128.901 78.3199C128.901 76.2665 129.275 74.4799 130.021 72.9599C130.795 71.4132 131.888 70.2132 133.301 69.3599C134.741 68.5065 136.448 68.0799 138.421 68.0799C140.421 68.0799 142.061 68.5599 143.341 69.5199C144.621 70.4799 145.555 71.7465 146.141 73.3199C146.755 74.8932 147.061 76.6265 147.061 78.5199V79.4799ZM133.701 76.4399H142.741C142.581 75.4799 142.301 74.6665 141.901 73.9999C141.528 73.3332 141.035 72.8265 140.421 72.4799C139.835 72.1065 139.115 71.9199 138.261 71.9199C137.435 71.9199 136.688 72.1065 136.021 72.4799C135.381 72.8265 134.861 73.3332 134.461 73.9999C134.088 74.6665 133.835 75.4799 133.701 76.4399ZM154.933 87.9999H150.453V68.5999H152.853L154.333 71.7999C154.866 71.3465 155.506 70.8799 156.253 70.3999C156.999 69.8932 157.773 69.4665 158.573 69.1199C159.399 68.7732 160.159 68.5999 160.853 68.5999L161.813 72.1999C161.173 72.1999 160.439 72.3599 159.613 72.6799C158.813 72.9999 157.999 73.4132 157.173 73.9199C156.373 74.4265 155.626 74.9999 154.933 75.6399V87.9999Z" fill="#99BAED"/>
<g clip-path="url(#clip0_14322_13)">
<path d="M50.5803 7.77571C44.6236 8.29687 40.0962 13.557 40.6169 19.5144L43.2968 50.1481L33.162 54.8734C29.7678 48.9756 22.3668 46.555 16.0846 49.4849C9.45122 52.5793 6.58174 60.4627 9.67428 67.097C12.768 73.7298 20.6523 76.6011 27.2873 73.5075C31.8398 71.3845 34.6184 67.0038 34.9143 62.3215L47.3265 56.5332L48.5196 70.1753C44.6133 72.7732 42.209 77.3697 42.6457 82.3735C43.2841 89.6661 49.7121 95.0581 57.003 94.421C64.2956 93.7826 69.6885 87.3551 69.0511 80.0641C68.447 73.1593 62.6501 67.9603 55.8458 67.9689L54.8707 56.8293L82.7388 43.8337C88.1593 41.3064 90.4502 34.7551 87.9231 29.3358L53.8559 45.2237L50.5803 7.77571ZM27.6756 64.9206C25.7785 68.2066 21.5764 69.3325 18.2905 67.4354C15.0045 65.5382 13.8787 61.336 15.7758 58.0502C17.6733 54.7635 21.8749 53.6383 25.1609 55.5355C28.4468 57.4326 29.5732 61.6339 27.6756 64.9206ZM61.7886 84.6157C59.8914 87.9017 55.6894 89.0276 52.4034 87.1305C49.1175 85.2333 47.9916 81.0313 49.8887 77.7453C51.7863 74.4586 55.9879 73.3335 59.2738 75.2306C62.5597 77.1277 63.6861 81.329 61.7886 84.6157Z" fill="#99BAED"/>
</g>
<defs>
<clipPath id="clip0_14322_13">
<rect width="74.2244" height="74.2244" fill="white" transform="translate(0 64.2802) rotate(-60)"/>
</clipPath>
</defs>
</svg>
